# xmcd CD database file
#
# Track frame offsets:
#	225
#	11916
#	20960
#	33556
#	46095
#	59566
#	76422
#	92385
#	106706
#	122640
#	135970
#	151102
#	163915
#	181028
#	198218
#	214253
#
# Disc length: 3060 seconds
#
# Revision: 0
# Processed by: cddbd v1.4PL0 Copyright (c) Steve Scherf et al.
# Submitted via: CDex 1.50
#
DISCID=ca0bf110
DTITLE=Billy Holiday - Billy Holyday (Best of)
DYEAR=1900
DGENRE=Jazz
TTITLE0=My Man (Version one)
TTITLE1=Miss Brown To You
TTITLE2=Keeps On A 'Rainin'
TTITLE3=Lover Man
TTITLE4=I Cover The Waterfront
TTITLE5=All Of Me
TTITLE6=Your're My Thrill
TTITLE7=He's Funny That Way
TTITLE8=Billie's Blues
TTITLE9=Tenderly
TTITLE10=Ain't Nobody's Bizness If I Do
TTITLE11=Them Three Eyes
TTITLE12=Moonlight in Vermont
TTITLE13=But Not For Me
TTITLE14=A Fine Romance
TTITLE15=I Wished On The Moon
EXTD=
EXTT0=
EXTT1=
EXTT2=
EXTT3=
EXTT4=
EXTT5=
EXTT6=
EXTT7=
EXTT8=
EXTT9=
EXTT10=
EXTT11=
EXTT12=
EXTT13=
EXTT14=
EXTT15=
PLAYORDER=
